HIERARCHY
ROOT root
{
	OFFSET	0	13.1	24.9
	CHANNELS 6  Xposition Yposition Zposition Xrotation Yrotation Zrotation
	JOINT spine_1
	{
		OFFSET	0	9.99999	0
		CHANNELS 3  Xrotation Yrotation Zrotation
		JOINT spine_2
		{
			OFFSET	0	112	-10
			CHANNELS 3  Xrotation Yrotation Zrotation
			JOINT spine_3
			{
				OFFSET	0	206.5	19.3
				CHANNELS 3  Xrotation Yrotation Zrotation
				JOINT spine_4
				{
					OFFSET	0	110.4	14.6
					CHANNELS 3  Xrotation Yrotation Zrotation
					JOINT neck_1
					{
						OFFSET	0	71.8	-50.3
						CHANNELS 3  Xrotation Yrotation Zrotation
						JOINT neck_2
						{
							OFFSET	0	86.2	-25.8
							CHANNELS 3  Xrotation Yrotation Zrotation
							JOINT head_ee
							{
								OFFSET	0	179.8	-8.7
								CHANNELS 3  Xrotation Yrotation Zrotation
								End Site
								{
									OFFSET	1	0	0
								}
							}
						}
					}
					JOINT left_clavicle
					{
						OFFSET	-43.2	22.4	-70.8
						CHANNELS 3  Xrotation Yrotation Zrotation
						JOINT left_shoulder
						{
							OFFSET	-93.9	-5.79999	48.7
							CHANNELS 3  Xrotation Yrotation Zrotation
							JOINT left_elbow
							{
								OFFSET	-291.4	-30.8	15.2
								CHANNELS 3  Xrotation Yrotation Zrotation
								JOINT left_lowarm_twist
								{
									OFFSET	-110.7	-3.89999	13.6
									CHANNELS 3  Xrotation Yrotation Zrotation
									JOINT left_hand
									{
										OFFSET	-110.7	-3.89999	13.6
										CHANNELS 3  Xrotation Yrotation Zrotation
										JOINT left_ee
										{
											OFFSET	-80.8	-5.10001	12.1
											CHANNELS 3  Xrotation Yrotation Zrotation
											End Site
											{
												OFFSET	1	0	0
											}
										}
									}
								}
							}
						}
					}
					JOINT right_clavicle
					{
						OFFSET	43.2	22.4	-70.8
						CHANNELS 3  Xrotation Yrotation Zrotation
						JOINT right_shoulder
						{
							OFFSET	93.9	-5.79999	48.7
							CHANNELS 3  Xrotation Yrotation Zrotation
							JOINT right_elbow
							{
								OFFSET	291.4	-30.8	15.2
								CHANNELS 3  Xrotation Yrotation Zrotation
								JOINT right_lowarm_twist
								{
									OFFSET	110.7	-3.89999	13.6
									CHANNELS 3  Xrotation Yrotation Zrotation
									JOINT right_hand
									{
										OFFSET	110.7	-3.89999	13.6
										CHANNELS 3  Xrotation Yrotation Zrotation
										JOINT right_ee
										{
											OFFSET	80.8	-5.10001	12.1
											CHANNELS 3  Xrotation Yrotation Zrotation
											End Site
											{
												OFFSET	1	0	0
											}
										}
									}
								}
							}
						}
					}
				}
			}
		}
	}
	JOINT left_hip
	{
		OFFSET	-82.8	-127.5	0.300001
		CHANNELS 3  Xrotation Yrotation Zrotation
		JOINT left_knee
		{
			OFFSET	-28.2	-396.7	2.2
			CHANNELS 3  Xrotation Yrotation Zrotation
			JOINT left_ankle
			{
				OFFSET	-11.7	-411.3	35.4
				CHANNELS 3  Xrotation Yrotation Zrotation
				JOINT left_toes
				{
					OFFSET	0	-60	-88.6
					CHANNELS 3  Xrotation Yrotation Zrotation
					JOINT left_foot_ee
					{
						OFFSET	-22.5	-16.5	-42.2
						CHANNELS 3  Xrotation Yrotation Zrotation
						End Site
						{
							OFFSET	1	0	0
						}
					}
				}
			}
		}
	}
	JOINT right_hip
	{
		OFFSET	82.8	-127.5	0.300001
		CHANNELS 3  Xrotation Yrotation Zrotation
		JOINT right_knee
		{
			OFFSET	28.2	-396.7	2.2
			CHANNELS 3  Xrotation Yrotation Zrotation
			JOINT right_ankle
			{
				OFFSET	11.7	-411.3	35.4
				CHANNELS 3  Xrotation Yrotation Zrotation
				JOINT right_toes
				{
					OFFSET	0	-60	-88.6
					CHANNELS 3  Xrotation Yrotation Zrotation
					JOINT right_foot_ee
					{
						OFFSET	22.5	-16.5	-42.2
						CHANNELS 3  Xrotation Yrotation Zrotation
						End Site
						{
							OFFSET	1	0	0
						}
					}
				}
			}
		}
	}
}
MOTION
Frames: 5
Frame Time: 0.02
2313.91 736.38 -1557.5 12.7542 72.5335 -18.9376 -1.37801 0.103398 2.77478 -1.37373 -0.0733082 2.77573 -1.37406 -0.720134 2.68176 -1.38398 -0.287732 2.76176 -7.65135 14.2527 1.09755 -7.70257 25.8193 4.1706 -0.0 0.0 -0.0 -3.86399 21.2227 -3.08748 -14.8048 -12.0678 74.3368 0.592217 -16.3501 0.0850773 -59.3181 -5.19807 5.07944 1.17068 7.34129 10.7307 -0.0 0.0 -0.0 12.7801 22.0096 -25.5757 1.41147 28.1544 -60.3856 2.08059 45.8596 -0.880232 -4.23095 0.168152 -0.513893 -0.81739 12.7364 10.9819 0.0 0.0 0.0 5.17552 10.9482 0.951496 -17.29 0.318055 2.6242 33.7092 11.9237 -4.29637 -31.0437 0.0 0.0 -0.0 0.0 -0.0 1.00542 27.4234 1.2101 0.725597 0.0305581 0.107153 31.2633 -8.10567 4.02431 -40.3192 0.0 0.0 0.0 0.0 0.0 
2304.98 736.472 -1558.05 10.397 72.5856 -16.2876 -1.31347 0.215311 2.76809 -1.30921 0.0388031 2.77618 -1.30397 -0.607797 2.70915 -1.31417 -0.172482 2.77109 -7.46955 13.8715 -0.527672 -7.50227 26.2306 2.43436 -0.0 0.0 -0.0 -3.77333 20.5945 -3.09426 -15.0349 -12.0986 74.3277 0.585567 -16.1762 0.0832149 -58.7112 -5.12292 5.05925 1.50902 6.31184 12.5961 -0.0 0.0 -0.0 12.6837 21.7656 -25.3733 1.57709 27.6013 -60.8175 2.25295 48.1324 -1.0063 -4.30212 0.171304 -0.522428 -0.926141 14.0488 12.2846 0.0 0.0 0.0 6.24249 10.1077 1.18276 -13.3097 0.315343 2.01364 32.0056 9.87052 -4.10838 -32.386 0.0 0.0 -0.0 0.0 -0.0 1.06618 28.3496 1.05092 0.230087 0.00954256 0.0340192 30.8619 -7.24695 3.98038 -40.1309 0.0 0.0 0.0 0.0 0.0 
2309.02 737.108 -1555.15 7.51406 72.2062 -13.277 -1.17981 0.399347 2.77749 -1.17555 0.221869 2.79726 -1.16114 -0.427536 2.7733 -1.17187 0.0156412 2.80599 -8.16141 13.9665 0.914397 -8.2484 25.4793 4.041 -0.0 0.0 -0.0 -3.64444 20.0379 -3.02529 -14.3914 -12.0754 74.5325 0.607978 -16.7611 0.0895683 -58.8982 -5.14605 5.06556 1.47052 6.48699 12.4042 -0.0 0.0 -0.0 12.6197 21.3618 -25.2585 2.13586 27.349 -60.9537 2.27281 48.3821 -1.02112 -4.41915 0.17651 -0.536455 -0.862064 14.8684 12.1905 0.0 0.0 0.0 6.49298 11.6795 0.903844 -10.941 0.293606 1.65087 31.4568 8.90768 -4.04706 -32.2801 0.0 0.0 -0.0 0.0 -0.0 2.49872 28.5164 0.634474 0.693574 0.0291807 0.102432 29.9646 -7.75101 3.8858 -40.1236 0.0 0.0 0.0 0.0 0.0 
2305.67 737.201 -1552.75 6.45615 72.3003 -11.9004 -1.26967 0.297137 2.84173 -1.26518 0.115783 2.85487 -1.25577 -0.548804 2.80405 -1.26673 -0.0992575 2.85549 -8.33462 13.855 0.862312 -8.433 25.3285 4.00292 -0.0 0.0 -0.0 -3.47822 19.435 -2.90586 -14.3994 -12.1152 74.7817 0.62892 -17.3045 0.0957026 -58.667 -5.11745 5.05775 1.56613 6.22382 12.9462 -0.0 0.0 -0.0 12.6785 21.2995 -25.3998 2.63723 27.078 -61.0761 2.34024 49.2119 -1.07186 -4.60255 0.184727 -0.558416 -0.845322 15.6378 12.3991 0.0 0.0 0.0 6.38184 11.9617 0.967878 -9.19796 0.268042 1.38464 31.9395 9.61044 -4.10027 -32.3232 0.0 0.0 -0.0 0.0 -0.0 3.24929 28.9147 0.108119 0.645282 0.0271088 0.0953112 29.6192 -7.59598 3.84838 -40.0966 0.0 0.0 0.0 0.0 0.0 
2300.86 738.807 -1553.37 4.88458 72.3648 -10.0531 -1.15479 0.320059 2.83265 -1.15034 0.139236 2.84725 -1.13989 -0.518524 2.80314 -1.15085 -0.0695005 2.84981 -8.27457 13.7955 0.686033 -8.36867 25.3319 3.8022 -0.0 0.0 -0.0 -3.27649 19.0003 -2.69259 -14.3935 -12.2823 74.9223 0.634362 -17.4451 0.0973277 -58.5639 -5.10471 5.05423 1.63154 6.05141 13.3214 -0.0 0.0 -0.0 12.7114 21.1494 -25.4881 2.24414 26.5501 -61.4665 2.37009 49.5704 -1.09452 -4.64197 0.186503 -0.563133 -0.865679 16.0468 12.71 0.0 0.0 0.0 6.51029 12.0829 0.946543 -7.93789 0.244523 1.19272 31.2124 9.22098 -4.02259 -32.7079 0.0 0.0 -0.0 0.0 -0.0 3.64711 29.1565 -0.0262009 0.542419 0.0227157 0.0801379 29.5285 -7.48472 3.83843 -40.0834 0.0 0.0 0.0 0.0 0.0 
